<svg width="695" height="111" viewBox="0 0 695 111" fill="none" xmlns="http://www.w3.org/2000/svg">
<path fill-rule="evenodd" clip-rule="evenodd" d="M209.404 63.2028C209.306 62.95 209.112 62.7361 208.858 62.6195C208.605 62.5028 208.313 62.5028 208.06 62.5806C203.543 64.2527 196.054 65.6138 190.154 65.6138C177.244 65.6138 171.091 62.1334 171.091 42.3592C171.091 26.5516 172.98 19.1047 190.154 19.1047C195.022 19.1047 200.913 19.8047 206.657 21.4768C207.124 21.613 207.63 21.3991 207.845 20.9713C209.438 17.4691 211.752 11.8049 213.455 7.6355L213.455 7.6348C213.691 7.05794 213.915 6.5097 214.123 5.99976C214.26 5.72755 214.26 5.41646 214.143 5.14425C214.026 4.87204 213.792 4.65816 213.5 4.56094C205.945 2.14994 196.93 0.75 188.81 0.75C161.764 0.75 149.711 13.4855 149.711 42.0676C149.711 71.058 161.764 83.9879 188.81 83.9879C195.586 83.9879 208.944 82.5686 215.389 80.002C215.895 79.7881 216.168 79.2048 215.973 78.6993L209.404 63.2028ZM0.206909 3.8983C0.206909 3.35491 0.646178 2.9144 1.18804 2.9144L56.7307 2.9144C57.4244 2.9144 57.8937 3.63096 57.6243 4.27864L50.7459 20.8108C50.5642 21.2475 50.1488 21.4461 49.7543 21.4068C49.722 21.4101 49.6893 21.4117 49.6561 21.4117H21.007V80.8392C21.007 81.3826 20.5677 81.8231 20.0258 81.8231H1.18804C0.646178 81.8231 0.206909 81.3826 0.206909 80.8392V3.8983ZM62.2813 42.0642C62.2813 12.3321 72.5768 0.75 99.018 0.75C125.671 0.75 136.063 12.3321 136.063 42.0642C136.063 72.2485 125.671 83.9879 99.018 83.9879C72.5768 83.9879 62.2813 72.2485 62.2813 42.0642ZM83.2187 42.3591C83.2187 63.321 86.9713 66.6639 99.018 66.6639C111.296 66.6639 115.125 63.321 115.125 42.3591C115.125 20.0404 110.949 18.0544 99.018 18.0544C87.3177 18.0544 83.2187 20.0404 83.2187 42.3591Z" fill="#0066B3"/>
<path fill-rule="evenodd" clip-rule="evenodd" d="M367.65 63.2028C367.553 62.95 367.358 62.7361 367.105 62.6195C366.852 62.5028 366.56 62.5028 366.307 62.5806C361.789 64.2527 354.3 65.6138 348.4 65.6138C335.491 65.6138 329.338 62.1334 329.338 42.3592C329.338 26.5516 331.226 19.1047 348.4 19.1047C353.268 19.1047 359.159 19.8047 364.903 21.4768C365.371 21.613 365.877 21.3991 366.091 20.9713C367.685 17.4691 369.998 11.8049 371.701 7.6355L371.701 7.6348C371.937 7.05794 372.161 6.5097 372.37 5.99976C372.506 5.72755 372.506 5.41646 372.389 5.14425C372.272 4.87204 372.039 4.65816 371.747 4.56094C364.192 2.14994 355.176 0.75 347.057 0.75C320.011 0.75 307.958 13.4855 307.958 42.0676C307.958 71.058 320.011 83.9879 347.057 83.9879C353.833 83.9879 367.19 82.5686 373.635 80.002C374.142 79.7881 374.414 79.2048 374.22 78.6993L367.65 63.2028ZM384.127 81.8228H403.473C403.884 81.8228 404.276 81.5473 404.394 81.1537C407.373 71.7673 410.019 61.2003 412.254 49.5509C414.175 39.6051 415.347 30.1815 416.043 21.4114H434.952V80.8389C434.952 81.3823 435.392 81.8228 435.934 81.8228H454.771C455.313 81.8228 455.753 81.3823 455.753 80.8389V3.89796C455.753 3.35457 455.313 2.91406 454.771 2.91406H397.279C396.75 2.91406 396.318 3.3273 396.299 3.85861C395.769 15.6457 394.515 28.8496 392.124 43.1752C389.791 57.0285 386.42 69.524 383.186 80.5634C383.009 81.1931 383.48 81.8228 384.127 81.8228ZM559.433 2.91406C558.891 2.91406 558.452 3.35457 558.452 3.89796V80.8389C558.452 81.3823 558.891 81.8228 559.433 81.8228H578.271C578.813 81.8228 579.252 81.3823 579.252 80.8389V21.4114H607.901C607.934 21.4114 607.967 21.4097 607.999 21.4065C608.394 21.4458 608.809 21.2471 608.991 20.8105L615.869 4.2783C616.139 3.63062 615.669 2.91406 614.976 2.91406L559.433 2.91406ZM225.012 2.9144C224.331 2.9144 223.858 3.58607 224.092 4.22023L252.713 81.8356C248.675 90.3511 244.187 99.3144 239.055 109.305C238.72 109.959 239.188 110.75 239.922 110.75H260.284C260.654 110.75 260.994 110.537 261.161 110.207C276.228 79.4618 287.315 52.2078 302.473 4.21455C302.679 3.58011 302.211 2.9144 301.545 2.9144H282.633C282.194 2.9144 281.806 3.21404 281.686 3.63639C275.85 24.1541 270.47 40.2138 264.232 55.6914L245.006 3.55238C244.864 3.16922 244.497 2.9144 244.086 2.9144H225.012ZM467.58 4.21989C467.346 3.58573 467.82 2.91406 468.5 2.91406H487.574C487.985 2.91406 488.353 3.16888 488.494 3.55204L507.721 55.691C513.958 40.2135 519.339 24.1537 525.174 3.63605C525.295 3.2137 525.682 2.91406 526.121 2.91406H545.033C545.7 2.91406 546.168 3.57977 545.961 4.21421C530.803 52.2074 519.716 79.4614 504.65 110.207C504.483 110.537 504.142 110.749 503.772 110.749H483.411C482.676 110.749 482.208 109.959 482.544 109.305C487.676 99.3141 492.163 90.3508 496.202 81.8353L467.58 4.21989ZM675.012 2.91406H693.839C694.388 2.91406 694.82 3.34604 694.8 3.89582V4.01363V76.3297C694.8 76.7617 694.545 77.1544 694.133 77.2919C685.406 80.6298 670.698 83.9874 657.519 83.9874C634.946 83.9874 625.807 74.0913 625.356 48.821C625.336 48.7621 625.336 4.01363 625.336 4.01363V3.89582C625.336 3.34604 625.768 2.91406 626.317 2.91406H645.144C645.693 2.91406 646.125 3.34604 646.125 3.89582V48.389C646.556 61.8194 649.87 65.0396 661.284 65.0396C665.873 65.0396 669.952 64.4898 674.032 63.3509V3.89582C674.032 3.34604 674.463 2.91406 675.012 2.91406Z" fill="#EE2F53"/>
</svg>
